<?xml version="1.0" standalone="no"?><!DOCTYPE svg PUBLIC "-//W3C//DTD SVG 1.1//EN" "http://www.w3.org/Graphics/SVG/1.1/DTD/svg11.dtd"><svg t="1589618490031" class="icon" viewBox="0 0 1024 1024" version="1.1" xmlns="http://www.w3.org/2000/svg" p-id="2364" xmlns:xlink="http://www.w3.org/1999/xlink" width="200" height="200"><defs><style type="text/css"></style></defs><path d="M608 953.6c-3.2 0-9.6 0-12.8-3.2L512 896l-83.2 51.2c-6.4 3.2-12.8 3.2-19.2 3.2-6.4 0-12.8-6.4-16-9.6l-51.2-83.2-96 12.8c-6.4 0-12.8 0-19.2-6.4-6.4-3.2-9.6-9.6-9.6-16l-9.6-96-92.8-32c-6.4-3.2-9.6-6.4-12.8-12.8s-3.2-12.8 0-19.2l32-92.8L64 528c0-3.2-3.2-9.6-3.2-16s3.2-12.8 6.4-16l70.4-67.2-32-92.8c-3.2-6.4-3.2-12.8 0-19.2s6.4-9.6 12.8-12.8l92.8-32 9.6-96c3.2-6.4 6.4-12.8 9.6-16 6.4-3.2 12.8-6.4 19.2-6.4l96 12.8 51.2-83.2c3.2-6.4 9.6-9.6 16-9.6s12.8 0 19.2 3.2L512 128l83.2-51.2c6.4-3.2 12.8-3.2 19.2-3.2 6.4 0 12.8 6.4 16 9.6l51.2 83.2 96-12.8c6.4 0 12.8 0 19.2 6.4 6.4 3.2 9.6 9.6 9.6 16l9.6 96 92.8 32c6.4 3.2 9.6 6.4 12.8 12.8s3.2 12.8 0 19.2l-32 92.8 70.4 67.2c3.2 3.2 6.4 9.6 6.4 16s-3.2 12.8-6.4 16l-70.4 67.2 32 92.8c3.2 6.4 3.2 12.8 0 19.2s-6.4 9.6-12.8 12.8l-92.8 32-9.6 96c0 6.4-3.2 12.8-9.6 16-6.4 3.2-12.8 6.4-19.2 6.4l-96-12.8-51.2 83.2c-3.2 6.4-9.6 9.6-16 9.6-3.2 0-6.4 3.2-6.4 3.2z m-96-108.8c3.2 0 9.6 0 12.8 3.2l73.6 48 48-73.6c6.4-6.4 12.8-12.8 22.4-9.6l86.4 9.6 9.6-86.4c0-9.6 6.4-16 16-19.2l83.2-28.8-28.8-83.2c-3.2-9.6 0-19.2 6.4-25.6l64-60.8-64-60.8c-6.4-6.4-9.6-16-6.4-25.6l28.8-83.2-83.2-28.8c-9.6-3.2-16-9.6-16-19.2l-9.6-86.4-86.4 9.6c-9.6 0-19.2-3.2-22.4-9.6L598.4 128l-73.6 48c-6.4 6.4-19.2 6.4-25.6 0L425.6 128l-48 73.6c-6.4 6.4-12.8 12.8-22.4 9.6l-86.4-6.4-9.6 89.6c0 9.6-6.4 16-16 19.2l-83.2 28.8 28.8 83.2c3.2 9.6 0 19.2-6.4 25.6l-64 60.8 64 60.8c6.4 6.4 9.6 16 6.4 25.6L160 681.6l83.2 28.8c9.6 3.2 16 9.6 16 19.2l9.6 86.4 86.4-9.6c9.6 0 19.2 3.2 22.4 9.6l48 73.6 73.6-48c3.2 3.2 9.6 3.2 12.8 3.2z" fill="#5F27CD" p-id="2365"></path><path d="M544 585.6h-176c-12.8 0-25.6-9.6-25.6-25.6s9.6-25.6 25.6-25.6H544c12.8 0 25.6 9.6 25.6 25.6s-12.8 25.6-25.6 25.6zM544 473.6h-176c-12.8 0-25.6-9.6-25.6-25.6s9.6-25.6 25.6-25.6H544c12.8 0 25.6 9.6 25.6 25.6s-12.8 25.6-25.6 25.6z" fill="#FF9F43" p-id="2366"></path><path d="M585.6 681.6c-96 0-176-80-176-176s80-176 176-176c28.8 0 57.6 6.4 83.2 19.2 12.8 6.4 16 22.4 9.6 32-6.4 12.8-19.2 16-32 9.6-19.2-9.6-38.4-16-60.8-16-70.4 0-128 57.6-128 128s57.6 128 128 128c19.2 0 35.2-3.2 51.2-12.8 12.8-6.4 25.6 0 32 12.8 6.4 12.8 0 25.6-12.8 32-22.4 12.8-44.8 19.2-70.4 19.2z" fill="#FF9F43" p-id="2367"></path></svg>