<?xml version="1.0" standalone="no"?><!DOCTYPE svg PUBLIC "-//W3C//DTD SVG 1.1//EN" "http://www.w3.org/Graphics/SVG/1.1/DTD/svg11.dtd"><svg t="1589618500073" class="icon" viewBox="0 0 1024 1024" version="1.1" xmlns="http://www.w3.org/2000/svg" p-id="2638" xmlns:xlink="http://www.w3.org/1999/xlink" width="200" height="200"><defs><style type="text/css"></style></defs><path d="M628.06 395.93h116.06c42.73 0 77.37-34.64 77.37-77.37v-38.69c0-42.73-34.64-77.37-77.37-77.37h-38.69c-42.73 0-77.37 34.64-77.37 77.37v116.06z m77.37-270.8h38.69c85.47 0 154.75 69.29 154.75 154.75v38.69c0 85.47-69.29 154.75-154.75 154.75H550.69V279.87c0-85.46 69.28-154.74 154.74-154.74z" fill="#00BE85" p-id="2639"></path><path d="M395.94 395.93H279.88c-42.73 0-77.37-34.64-77.37-77.37v-38.69c0-42.73 34.64-77.37 77.37-77.37h38.69c42.73 0 77.37 34.64 77.37 77.37v116.06z m-77.37-270.8h-38.69c-85.47 0-154.75 69.28-154.75 154.74v38.69c0 85.47 69.29 154.75 154.75 154.75h193.43V279.87c0-85.46-69.28-154.74-154.74-154.74zM628.06 628.06h116.06c42.73 0 77.37 34.64 77.37 77.37v38.69c0 42.73-34.64 77.37-77.37 77.37h-38.69c-42.73 0-77.37-34.64-77.37-77.37V628.06z m77.37 270.81h38.69c85.47 0 154.75-69.29 154.75-154.75v-38.69c0-85.47-69.29-154.75-154.75-154.75H550.69v193.43c0 85.47 69.28 154.76 154.74 154.76zM395.94 628.06H279.88c-42.73 0-77.37 34.64-77.37 77.37v38.69c0 42.73 34.64 77.37 77.37 77.37h38.69c42.73 0 77.37-34.64 77.37-77.37V628.06z m-77.37 270.81h-38.69c-85.47 0-154.75-69.29-154.75-154.75v-38.69c0-85.47 69.29-154.75 154.75-154.75h193.43v193.43c0 85.47-69.28 154.76-154.74 154.76z" fill="#00BE85" opacity=".5" p-id="2640"></path></svg>