<?xml version="1.0" standalone="no"?><!DOCTYPE svg PUBLIC "-//W3C//DTD SVG 1.1//EN" "http://www.w3.org/Graphics/SVG/1.1/DTD/svg11.dtd"><svg t="1589618494763" class="icon" viewBox="0 0 1024 1024" version="1.1" xmlns="http://www.w3.org/2000/svg" p-id="2494" xmlns:xlink="http://www.w3.org/1999/xlink" width="200" height="200"><defs><style type="text/css"></style></defs><path d="M603.4944 419.8144H0v409.6c0 57.2416 35.7376 106.0864 85.9648 126.0032a136.96 136.96 0 0 0 34.688 8.2176l543.8208-543.8208h-60.9792z" fill="#B3B4B5" p-id="2495"></path><path d="M120.6528 963.6352c4.992 0.5888 9.8816 1.5104 15.0272 1.5104h752.64c74.8544 0 135.68-60.9024 135.68-135.7568v-409.6H664.4992L120.6528 963.6352z" fill="#A0A1A2" p-id="2496"></path><path d="M819.4816 196.2752H135.68a135.808 135.808 0 0 0-135.68 135.68v87.8592H664.4736l223.5392-223.5392h-68.5312z" fill="#959595" p-id="2497"></path><path d="M888.32 196.2752h-0.2816l-223.5392 223.5392H1024v-87.8592c0-74.8288-60.8256-135.68-135.68-135.68z" fill="#7C7B7A" p-id="2498"></path><path d="M374.912 196.2752c-1.2288-13.9008 0.2048-28.2112 7.3728-40.0896 16.2816-27.136 60.5696-41.1904 129.0752-40.7552 68.992 0.4608 114.1248 15.4112 130.5088 43.136 6.9376 11.648 8.448 25.0112 7.552 37.7088h56.448c0.9728-21.3248-2.3808-44.4672-15.0528-66.1248-27.3152-46.6688-87.5776-70.656-179.072-71.296-91.1872-0.8704-150.7584 22.4-178.176 68.5312-13.3632 22.4256-16.6144 46.6944-15.3344 68.864h56.6784z" fill="#B3B4B5" p-id="2499"></path><path d="M565.0688 679.8592zM569.6512 532.224zM647.0144 738.688zM580.608 700.1088zM623.2576 730.7008zM602.496 719.2832zM557.2864 552.8064z" fill="#FFFFFF" p-id="2500"></path><path d="M474.3168 553.4976H174.7456l-15.5392 38.3232h333.2864l38.2976-38.3232z" fill="#F9C262" p-id="2501"></path><path d="M530.7904 553.4976l-38.3232 38.3232h53.3504a132.6592 132.6592 0 0 1 11.4432-39.0144l-0.4096 0.6912h-26.0608z" fill="#F5BB43" p-id="2502"></path><path d="M423.3984 606.208H162.4576l49.6896 46.1312 58.7264-18.8928 48.2816 27.5968 62.08-43.1104 18.2528 13.0048 31.4624 22.4256 47.1296-47.1552z" fill="#E2A644" p-id="2503"></path><path d="M544.768 606.208h-66.688l-47.1296 47.1296 4.3264 3.0976h117.8112c0.3072 0.7936 0.768 1.536 1.0752 2.3296a132.4544 132.4544 0 0 1-9.6768-49.2544c0.0512-1.1264 0.256-2.176 0.2816-3.3024z" fill="#E0A336" p-id="2504"></path><path d="M437.2992 591.8208H159.2064l-3.3536 8.2688 6.6048 6.1184h315.6224l14.4128-14.3872z" fill="#C48C3B" p-id="2505"></path><path d="M478.08 606.208h66.688c0.128-4.864 0.4608-9.6768 1.0752-14.4128h-53.3504l-14.4128 14.4128z" fill="#B77D20" p-id="2506"></path><path d="M677.5296 742.528c-8.5248 0-16.7936-0.9728-24.8832-2.5088 8.064 1.536 16.3072 2.5856 24.832 2.5856 62.9248 0 115.3024-43.776 129.1776-102.4512-13.8752 58.624-66.2528 102.3744-129.1264 102.3744zM677.4784 476.4416c-8.448 0-16.5888 1.0496-24.576 2.56a132.352 132.352 0 0 1 24.6272-2.4832 133.0176 133.0176 0 0 1 133.0176 133.0176 133.0688 133.0688 0 0 0-133.0688-133.0944z" fill="#FFFFFF" p-id="2507"></path><path d="M677.5296 476.5184c-8.448 0-16.6144 0.9728-24.6272 2.4832-1.7664 0.3328-3.5072 0.768-5.2736 1.1776a132.8128 132.8128 0 0 0-18.9952 5.888c-1.3824 0.5376-2.816 0.9984-4.1984 1.6128a135.296 135.296 0 0 0-20.6848 11.2128c-0.896 0.5888-1.6896 1.3312-2.5856 1.9456a134.6048 134.6048 0 0 0-31.5904 31.3856c-0.9728 1.3312-2.0736 2.56-2.9696 3.9424a132.608 132.608 0 0 0-20.8384 55.6544h0.4608c-0.64 4.7616-1.3312 9.4976-1.4592 14.4128-0.0256 1.1008-0.256 2.176-0.256 3.3024 0 17.4336 3.584 33.9968 9.6768 49.2544 1.0496 2.6112 2.3296 5.0688 3.5328 7.6032a129.1264 129.1264 0 0 0 22.8864 33.7152c1.3312 1.4336 2.5344 2.9696 3.9168 4.3264 5.5552 5.4272 11.5456 10.4192 17.9712 14.848 1.0752 0.7424 2.2528 1.3056 3.3536 2.0224 5.5296 3.5584 11.3152 6.7072 17.3824 9.4208 1.9456 0.8704 3.9424 1.6384 5.9136 2.432 5.76 2.2528 11.7248 4.096 17.8432 5.5296 1.8944 0.4352 3.7376 0.9984 5.6576 1.3312 8.064 1.536 16.3584 2.5088 24.8832 2.5088 62.8736 0 115.2512-43.7504 129.1264-102.4a132.864 132.864 0 0 0 3.8912-30.6176 132.992 132.992 0 0 0-133.0176-132.992z m2.0736 184.192a51.2 51.2 0 1 1 0.0256-102.4256 51.2 51.2 0 0 1-0.0256 102.4256z" fill="#F5BB43" p-id="2508"></path><path d="M544.768 606.208h0.0768c0.1024-4.8896 0.8192-9.6256 1.4592-14.4128h-0.4608a140.8768 140.8768 0 0 0-1.0752 14.4128z" fill="#FFFFFF" p-id="2509"></path><path d="M0 394.2144v25.6h664.4992l25.6-25.6z" fill="#8C8C8C" p-id="2510"></path><path d="M664.4992 419.8144H1024v-25.6H690.0992z" fill="#706F6E" p-id="2511"></path></svg>