<?xml version="1.0" standalone="no"?><!DOCTYPE svg PUBLIC "-//W3C//DTD SVG 1.1//EN" "http://www.w3.org/Graphics/SVG/1.1/DTD/svg11.dtd"><svg t="1589618520484" class="icon" viewBox="0 0 1024 1024" version="1.1" xmlns="http://www.w3.org/2000/svg" p-id="4565" xmlns:xlink="http://www.w3.org/1999/xlink" width="200" height="200"><defs><style type="text/css"></style></defs><path d="M448.667136 46.6176a399.5136 399.5136 0 0 0-284.288 117.76 399.4368 399.4368 0 0 0-117.76 284.288c0 107.3664 41.8304 208.3328 117.76 284.288 3.3792 3.3792 7.0912 6.3232 10.5728 9.5744L698.062336 133.6064a398.7712 398.7712 0 0 0-249.3952-86.9888z" fill="#F8FCFF" p-id="4566"></path><path d="M732.955136 164.3776a411.136 411.136 0 0 0-34.8672-30.7712L174.951936 742.528c74.6496 69.632 171.136 108.16 273.7152 108.1856 107.3664 0 208.3584-41.8304 284.288-117.7856a399.5136 399.5136 0 0 0 117.76-284.2624 399.5392 399.5392 0 0 0-117.76-284.288z" fill="#EFF2F4" p-id="4567"></path><path d="M796.545536 731.0592c-9.6 11.9296-19.84 23.5264-30.8992 34.5856-11.0848 11.0848-22.7072 21.2992-34.6112 30.8992 9.3696 9.9584 73.4208 74.3168 73.4208 74.3168l66.432-66.4064c0 0.0256-64.4096-63.9744-74.3424-73.3952z" fill="#259EBA" p-id="4568"></path><path d="M1015.758336 916.9408l-118.5792-118.5792a27.8784 27.8784 0 0 0-39.5264 0l-3.2512 3.2512-52.7872 52.7872-3.2512 3.2512a27.8528 27.8528 0 0 0 0 39.5264l118.5792 118.5792a27.8272 27.8272 0 0 0 39.5264 0l59.2896-59.2896a27.8272 27.8272 0 0 0 0-39.5264z" fill="#3BAFDA" p-id="4569"></path><path d="M765.927936 131.4048C681.166336 46.6688 568.500736 0 448.667136 0S216.167936 46.6688 131.406336 131.4048A445.7728 445.7728 0 0 0 0.001536 448.6656c0 119.8336 46.6688 232.4736 131.4304 317.2608 2.8416 2.8416 5.8112 5.4784 8.8064 8.0896l4.4544 3.968a446.7712 446.7712 0 0 0 303.9744 119.3472c119.8336 0 232.4992-46.6688 317.2608-131.4304a445.696 445.696 0 0 0 131.4048-317.2352 445.9776 445.9776 0 0 0-131.4048-317.2608z m-34.0736 600.448a398.0032 398.0032 0 0 1-283.1872 117.3248c-100.608 0-196.9408-37.8624-271.3088-106.5472l-5.3504-4.7872c-2.2016-1.9456-4.4544-3.8912-6.528-5.9648a397.8752 397.8752 0 0 1-117.2992-283.1872c0-106.9824 41.6512-207.5648 117.2992-283.2128s176.2304-117.2992 283.1872-117.2992 207.5392 41.6512 283.1872 117.2992a398.0032 398.0032 0 0 1 117.2992 283.2128c0 106.9568-41.6512 207.5392-117.2992 283.1616z" fill="#3BAFDA" p-id="4570"></path><path d="M443.572736 568.4224zM551.246336 467.2768zM459.931136 667.9552zM440.270336 593.7152zM448.769536 645.504zM442.190336 622.7456zM527.924736 473.088z" fill="#FFFFFF" p-id="4571"></path><path d="M256.948736 203.0848l-38.0928 16.1024 196.6336 196.6336 21.6064 21.5808 25.0368-29.1328z" fill="#F9C262" p-id="4572"></path><path d="M527.156736 473.2928l-18.4576-18.4576-39.9616-39.936-6.6304-6.6304-25.0368 29.1328 17.4336 17.4336 37.7344 37.7344a131.712 131.712 0 0 1 35.6864-19.4816l-0.768 0.2048z" fill="#F5BB43" p-id="4573"></path><path d="M395.495936 416.1536L210.996736 231.6544l2.5088 67.7632 54.8864 28.1344 14.6176 53.6576 74.368 13.44 3.712 22.0928 6.4256 38.1184 0.8704 5.248 26.4704 26.4448 32.8192-38.1952z" fill="#E2A644" p-id="4574"></path><path d="M427.675136 448.3584l-32.8192 38.2208 56.8576 56.8576c-0.3584 0.768-0.5376 1.6128-0.8704 2.4064a132.2496 132.2496 0 0 1 27.9808-41.6768c0.7936-0.7936 1.6896-1.3824 2.5088-2.1504l-47.1552-47.1552-6.5024-6.5024z" fill="#E0A336" p-id="4575"></path><path d="M415.489536 415.8208L218.855936 219.1872l-8.2176 3.4816 0.3584 8.9856 184.4992 184.4992 32.1792 32.2048 9.4208-10.9568z" fill="#C48C3B" p-id="4576"></path><path d="M437.095936 437.4016l-9.4208 10.9568 6.4768 6.4768 47.1552 47.1552a134.912 134.912 0 0 1 10.9568-9.4208l-37.7344-37.7344-17.4336-17.4336z" fill="#B77D20" p-id="4577"></path><path d="M478.798336 692.2752a134.1184 134.1184 0 0 1-15.8208-19.3536c4.608 6.784 9.7024 13.3632 15.744 19.3792 44.4928 44.4928 112.4864 50.56 163.7888 18.8928-51.2768 31.616-119.2448 25.5232-163.712-18.9184zM666.932736 504.064a130.5088 130.5088 0 0 0 0 0.0768 133.0688 133.0688 0 0 0 0-0.0768z" fill="#FFFFFF" p-id="4578"></path><path d="M666.907136 504.1408a131.4048 131.4048 0 0 0-19.1744-15.6416c-1.4848-1.024-3.0464-1.9456-4.5568-2.8928a131.2512 131.2512 0 0 0-17.5872-9.2672c-1.3568-0.5888-2.688-1.28-4.096-1.8432a133.8112 133.8112 0 0 0-22.5536-6.6816c-1.0752-0.2048-2.1248-0.256-3.2-0.4352a135.9872 135.9872 0 0 0-44.5184-0.1536c-1.6128 0.256-3.2512 0.3584-4.864 0.6912a132.5824 132.5824 0 0 0-54.0928 24.6016l0.3328 0.3328c-3.8144 2.9184-7.6544 5.7856-11.2128 9.1648l-0.0768-0.0512c-0.7936 0.768-1.7152 1.3568-2.5088 2.1504a132.2496 132.2496 0 0 0-27.9808 41.6768c-1.1008 2.5856-1.9456 5.248-2.8672 7.8848a130.816 130.816 0 0 0-7.6544 40.0128c-0.0512 1.9456-0.3072 3.8912-0.3072 5.8368 0.0768 7.7824 0.7936 15.5392 2.2272 23.1936 0.2304 1.28 0.6656 2.5344 0.9472 3.7888 1.408 6.4256 3.2512 12.7744 5.632 18.9696 0.7424 1.9968 1.6128 3.9424 2.4576 5.9136 2.4832 5.6576 5.4016 11.1872 8.704 16.5376 1.024 1.6384 1.9456 3.3536 3.0464 4.9408 4.608 6.8096 9.7792 13.3376 15.8208 19.3536 44.4416 44.4672 112.4352 50.56 163.712 18.9184 8.6272-5.3248 16.9216-11.4176 24.3968-18.9184a133.0176 133.0176 0 0 0-0.0256-188.0832z m-56.3712 131.7376a51.2 51.2 0 1 1-72.4224-72.448 51.2 51.2 0 0 1 72.4224 72.448z" fill="#F5BB43" p-id="4579"></path><path d="M481.307136 501.9904l0.0768 0.0512c3.5328-3.3792 7.3984-6.2464 11.2128-9.1648l-0.3328-0.3328c-3.7888 2.944-7.424 6.1184-10.9568 9.4464z" fill="#FFFFFF" p-id="4580"></path></svg>