<?xml version="1.0" standalone="no"?><!DOCTYPE svg PUBLIC "-//W3C//DTD SVG 1.1//EN" "http://www.w3.org/Graphics/SVG/1.1/DTD/svg11.dtd"><svg t="1589618510721" class="icon" viewBox="0 0 1024 1024" version="1.1" xmlns="http://www.w3.org/2000/svg" p-id="3606" xmlns:xlink="http://www.w3.org/1999/xlink" width="200" height="200"><defs><style type="text/css"></style></defs><path d="M880.9728 677.4784l0 0zM811.4688 440.3968l0 0z" fill="#F8FCFF" p-id="3607"></path><path d="M0 185.216h645.2224v645.2224H0z" fill="#CCCCCC" p-id="3608"></path><path d="M593.5872 236.8512H51.6352v35.0208l-0.0256 0.0256V743.7568h0.0256v35.072z" fill="#F8FCFF" p-id="3609"></path><path d="M51.6352 778.8288h541.952V236.8512z" fill="#EFF2F4" p-id="3610"></path><path d="M240.7168 329.2672v56.3968h204.0576l56.3968-56.3968z" fill="#7AC3E1" p-id="3611"></path><path d="M501.1712 329.2672l-56.3968 56.3968h97.8944v-56.3968h-0.8704z" fill="#3BAFDA" p-id="3612"></path><path d="M157.9776 629.248H101.3504v56.6272h43.2128l13.4144-13.4144z" fill="#7AC3E1" p-id="3613"></path><path d="M157.9776 672.4608l-13.4144 13.4144h13.4144z" fill="#36A8C6" p-id="3614"></path><path d="M101.3504 481.1776h56.6272v56.6272H101.3504zM101.3504 333.0816h56.6272v56.6272H101.3504z" fill="#7AC3E1" p-id="3615"></path><path d="M241.7152 629.9904h-0.8704V686.3872H542.6688V629.9904h-0.8704z" fill="#3BAFDA" p-id="3616"></path><path d="M240.7168 481.2032v56.4224h52.1216l56.4224-56.4224z" fill="#7AC3E1" p-id="3617"></path><path d="M349.2608 481.2032l-56.4224 56.4224H543.872V481.2032h-0.896z" fill="#3BAFDA" p-id="3618"></path><path d="M1021.312 536.4736a10.24 10.24 0 0 0-7.0144-4.1728l-60.8768-9.2928c5.6832 18.2528 8.7296 37.632 8.7296 57.7536l-0.0512 0.6912a194.5088 194.5088 0 0 0-8.6784-57.0624l-0.3072-0.0512a199.168 199.168 0 0 0-13.696-32.768l0.1792-0.256c4.0192-5.5552 9.9584-13.2864 17.8688-23.296 8.0128-10.1632 13.696-17.536 17.0496-22.2208a12.7744 12.7744 0 0 0 2.6624-7.68 10.752 10.752 0 0 0-2.3552-7.3472c-8.0128-11.3664-26.3936-30.2848-55.1424-56.8064a12.8768 12.8768 0 0 0-8.3456-3.328 10.7264 10.7264 0 0 0-8.0128 2.9952l-46.976 35.3792-0.4864 0.384a201.984 201.984 0 0 0-30.08-12.3648l-0.128-0.768-9.2416-60.7488a9.8816 9.8816 0 0 0-3.84-7.1936 12.6464 12.6464 0 0 0-8.192-2.8416h-74.1888c-6.4512 0-10.4704 3.1232-12.032 9.3696-2.8672 11.0336-6.0672 31.5904-9.6256 61.5168l-0.0768 0.64a192 192 0 0 0-30.3872 12.6976l-0.512-0.384-45.6192-35.3792a14.1824 14.1824 0 0 0-8.704-3.328c-4.8896 0-15.4368 7.9616-31.5904 23.8848s-27.1104 27.904-32.9216 35.9168a13.9776 13.9776 0 0 0-2.9952 7.68 12.544 12.544 0 0 0 3.328 8.0128c14.848 17.9456 26.7008 33.2288 35.584 45.9008l0.1792 0.2304a164.608 164.608 0 0 0-13.0304 30.7456l-0.1536 0.0256-62.0032 9.3184a10.0352 10.0352 0 0 0-6.3488 4.352 12.7232 12.7232 0 0 0-2.6624 7.68v74.1632c0 2.8928 0.8704 5.5296 2.6624 7.8592 1.7664 2.3552 4.096 3.7376 7.0144 4.1728l60.8 8.96 0.384 0.0512c3.0976 10.9056 7.68 21.9392 13.696 33.0752l-0.1792 0.256a731.392 731.392 0 0 1-17.8688 23.3216 667.904 667.904 0 0 0-17.0496 22.2208 13.056 13.056 0 0 0-0.3072 15.36c8.704 12.032 27.0592 30.7456 55.1424 56.1408a11.4432 11.4432 0 0 0 8.3456 3.6864 12.0064 12.0064 0 0 0 8.3712-2.9952l46.6176-35.3792 0.4864-0.384c9.1392 4.6848 19.1488 8.8064 30.1056 12.3648l0.1024 0.768 9.2416 60.7488a10.0352 10.0352 0 0 0 3.84 7.1936c2.3552 1.8944 5.0688 2.816 8.192 2.816h74.1888c6.4512 0 10.4704-3.0976 12.032-9.344 2.8672-11.0336 6.0672-31.616 9.6256-61.5424l0.0768-0.6144a192 192 0 0 0 30.3872-12.6976l0.512 0.384c0.3328-0.1792 0.64-0.4352 0.9728-0.6144l44.6464 34.9696a16.384 16.384 0 0 0 8.704 2.9952c4.8896 0 15.3856-7.9104 31.4112-23.7312 16.0512-15.7952 27.0592-27.8528 33.1008-36.096 2.0224-2.2272 2.9952-4.7872 2.9952-7.68s-1.1008-5.6832-3.328-8.3456a824.2432 824.2432 0 0 1-35.3536-45.5936 215.04 215.04 0 0 0 12.6208-29.568l0.1536-0.0256c0.1536-0.4864 0.1792-0.9472 0.3328-1.4336l61.3376-9.2672a10.24 10.24 0 0 0 6.6816-4.3264 12.8 12.8 0 0 0 2.688-7.68v-74.1888a12.544 12.544 0 0 0-2.688-7.8848z m-253.9776 194.048a148.3776 148.3776 0 1 1 0-296.8064 148.3776 148.3776 0 1 1 0 296.8064z" fill="#8CC152" p-id="3619"></path><path d="M618.9312 582.1184a148.3776 148.3776 0 1 0 148.3776-148.3776c-11.4176 0-22.4768 1.408-33.152 3.8656a148.3264 148.3264 0 0 0-115.2256 144.512z m87.9104-60.4672a82.4064 82.4064 0 0 1 60.4928-25.0624c23.6032 0 43.776 8.3456 60.4928 25.0624s25.0624 36.864 25.0624 60.4928-8.3456 43.776-25.0624 60.4928a82.4064 82.4064 0 0 1-60.4928 25.0624 82.432 82.432 0 0 1-60.4928-25.0624c-16.7168-16.7168-25.0624-36.864-25.0624-60.4928s8.3456-43.8016 25.0624-60.4928z" fill="#BAED3E" p-id="3620"></path></svg>