<?xml version="1.0" standalone="no"?><!DOCTYPE svg PUBLIC "-//W3C//DTD SVG 1.1//EN" "http://www.w3.org/Graphics/SVG/1.1/DTD/svg11.dtd"><svg t="1589603666437" class="icon" viewBox="0 0 1024 1024" version="1.1" xmlns="http://www.w3.org/2000/svg" p-id="1513" xmlns:xlink="http://www.w3.org/1999/xlink" width="200" height="200"><defs><style type="text/css"></style></defs><path d="M330.405498 803.425816C358.538923 783.245492 381.532599 760.035411 399.819288 734.174301 418.106027 708.204978 430.928408 679.476419 438.66507 648.205034 458.250289 661.189691 471.505432 671.57742 478.268318 679.476419 485.085233 687.429525 488.439613 695.544934 488.439613 704.039068 488.439613 726.491711 477.132117 753.11026 454.13849 783.624212 431.307093 814.138163 409.666024 829.44924 389.052855 829.44924 382.831031 829.44924 374.715636 827.176926 364.760747 822.848702 354.751732 818.304073 343.390159 811.91995 330.405498 803.425816M164.634673 801.315811C121.622967 747.050754 90.513896 695.923658 71.686144 647.447591 52.587861 598.971529 43.173986 547.682124 43.173986 493.525275 43.173986 434.120455 54.697886 376.98795 77.529234 321.749046 100.306505 266.456035 132.930462 217.655359 175.184701 175.184701 217.655345 132.930453 266.293736 100.306495 321.370307 77.529239 376.446927 54.697877 433.741726 43.173995 493.525285 43.173995 553.525199 43.173995 610.820047 54.481467 665.355605 77.15052 719.891163 99.765467 768.313149 132.551734 811.162526 175.184701 853.579045 217.655359 886.203002 266.293731 909.250804 321.370327 932.190354 376.446927 943.714255 433.795838 943.714255 493.362966 943.714255 552.389061 932.190354 609.575668 909.250804 665.030988 886.203002 720.432201 853.579045 769.070572 811.162526 811.162512 768.691834 853.579064 720.053492 886.203021 664.760466 909.250794 609.521566 932.24446 552.389047 943.714245 493.525285 943.714245 421.298127 943.714245 363.40814 932.24446 320.017749 909.034384 276.46503 885.824302 254.769835 855.310356 254.769835 817.763045 254.769835 809.647636 256.284721 801.69453 259.098088 793.957834 262.127811 786.275245 266.834749 778.159835 273.651712 769.286983 280.198144 775.508797 286.095311 779.99933 291.559717 783.083184 296.807668 786.058835 301.568731 787.357301 305.734656 787.357301 312.281088 787.357301 322.34418 781.730616 336.08626 770.42314 349.66606 758.899254 363.191735 744.399721 376.825661 726.654015 387.916702 711.613455 397.330578 694.571086 405.283694 675.526919 413.182683 656.699163 417.132203 644.634249 417.132203 639.332181 417.132203 636.14012 412.425265 628.944452 403.227794 617.853391 393.759793 606.708224 389.052855 595.563057 389.052855 584.03917 389.052855 568.99861 393.381108 548.98059 402.091642 524.309738 410.74805 499.422471 423.191698 469.774165 439.801222 435.473023 459.007707 396.78956 474.481128 369.629979 486.600119 353.994284 498.448628 338.304488 510.729947 328.349584 523.335875 324.02136 526.149242 322.885203 531.072585 321.911355 537.673094 321.153916 559.368338 318.881602 575.599128 309.467721 586.365611 293.074588 596.158171 276.465045 604.814629 255.148564 612.172605 229.12514 619.530581 203.318131 623.263646 181.244206 623.263646 163.119787 623.263646 148.403839 621.045467 138.448935 616.33853 133.309172 611.793871 128.277616 602.16359 125.572481 587.285358 125.572481 564.075276 125.572481 544.490057 127.303768 528.259218 130.495829 512.028428 133.904301 499.747109 138.611244 491.307057 144.995367 480.919357 152.353339 464.472113 170.315454 441.85717 199.152216 419.242179 227.826673 396.032098 260.61294 372.443331 297.402812 329.431625 364.760732 294.048427 436.60918 266.456015 512.785852 238.75545 589.178934 224.959244 646.311434 224.959244 684.562081 224.959244 692.136463 226.690536 699.873158 229.882587 708.204978 233.291045 716.482701 239.134135 727.411454 247.628264 740.991244 236.104411 755.328473 227.610283 769.665702 222.145877 783.624212 216.681521 797.582721 213.814077 811.70354 213.814077 826.040769 213.814077 873.542978 239.512869 912.442856 290.63997 942.578088 341.92935 972.767422 409.449618 987.91619 493.362956 987.91619 557.853452 987.91619 620.504405 975.256147 681.586444 949.93606 742.506106 924.886489 796.230168 889.232779 842.650331 842.974925 889.016369 796.608873 924.886504 743.047148 949.990156 682.343868 975.20206 621.586481 987.862065 558.610881 987.862065 493.362966 987.862065 428.115051 975.418466 365.51817 950.314764 305.518221 925.211112 245.518273 889.395102 192.010654 842.650331 144.833058 796.06784 97.871872 742.88484 62.218162 682.560268 37.330895 622.343899 12.443633 559.368338 0 493.362956 0 427.736308 0 364.923026 12.443633 304.760783 37.493204 244.382135 62.596881 191.199134 98.4129 144.833048 144.833058 98.629291 190.820396 62.97561 244.219806 37.871909 304.977193 12.660053 365.896889 0 428.656079 0 493.525275 0 550.495466 8.656457 603.516162 26.0234 651.992225 43.390391 700.630596 68.8187 744.021002 102.795215 781.947026 109.774458 790.008335 116.699624 796.284255 123.516587 800.396064 130.333501 804.724283 136.717653 806.834293 142.560744 806.834293 144.454315 806.834293 147.267682 806.239159 150.838467 805.481721 154.625658 804.561974 159.170267 803.047097 164.634673 801.315811M590.693815 328.349584C609.142833 305.518221 623.263646 278.575055 633.326787 247.465974 643.065271 216.302787 648.205019 182.921392 648.205019 147.105373 675.743354 157.439 694.030043 167.285697 702.848829 176.699577 711.775768 186.113453 716.103973 199.314525 716.103973 216.140483 716.103973 245.355964 709.12473 273.814011 695.166196 301.731031 681.045382 329.86446 666.491758 343.768864 651.397071 343.768864 645.553981 343.768864 637.81732 342.470398 628.02471 340.035774 618.178024 337.384741 605.734376 333.435241 590.693815 328.349584" p-id="1514" fill="#3a8c8a"></path></svg>